<svg width="86" height="86" viewBox="0 0 86 86" fill="none" xmlns="http://www.w3.org/2000/svg">
<path d="M28.6803 41.2051C28.9922 41.2992 29.4777 41.6162 29.7771 41.782C30.5866 42.2299 31.4217 42.8107 32.2401 43.2218L32.2523 43.2441L32.2502 45.8912C32.2507 46.2385 32.2695 47.0645 32.2296 47.3736L32.249 47.3941L37.2631 50.3365C37.9271 50.7271 39.2959 51.472 39.8436 51.8814C39.5793 52.3144 39.2783 52.7843 39.0458 53.2306C38.2156 54.7272 37.2671 56.2843 36.3949 57.7654L32.6092 64.2053L30.7387 67.3904C30.0458 68.5527 29.3597 69.7189 28.6803 70.8892C28.6699 71.6383 28.6675 72.3879 28.6732 73.137C28.6736 74.3712 28.7093 75.8178 28.6567 77.0347C27.0356 76.9873 25.3174 77.0133 23.6898 77.0133L15.3389 77.0171C13.8422 77.0184 12.2874 77.0415 10.7966 76.9928C10.7307 76.4175 10.7576 75.5915 10.7589 74.996L10.761 71.9193L10.7564 63.3911C10.7553 62.028 10.7924 60.4873 10.7513 59.1394C10.6982 58.9181 10.7177 58.0518 10.7177 57.7834L10.718 54.9481L10.7198 48.504C10.7202 47.3517 10.6834 45.9219 10.7524 44.7898L10.7524 44.5748C10.751 43.6106 10.7097 42.18 10.7784 41.2538C11.0788 41.1471 14.9881 41.2032 15.603 41.2032L28.6803 41.2051Z" fill="#D50000"/>
<path d="M10.7513 59.1393C11.1891 59.094 12.1746 59.1234 12.6633 59.1234L16.3887 59.1246L28.668 59.1263L28.6683 61.9062C29.8428 62.5982 31.05 63.3302 32.2373 63.9928C32.3494 64.0558 32.504 64.1372 32.6092 64.2053L30.7387 67.3904C30.0458 68.5527 29.3597 69.7189 28.6803 70.8892C28.6699 71.6383 28.6675 72.3879 28.6732 73.137C28.6736 74.3712 28.7093 75.8178 28.6567 77.0347C27.0356 76.9873 25.3174 77.0133 23.6898 77.0133L15.3389 77.0171C13.8422 77.0184 12.2874 77.0414 10.7966 76.9927C10.7307 76.4174 10.7576 75.5915 10.7589 74.996L10.761 71.9192L10.7564 63.391C10.7553 62.028 10.7924 60.4873 10.7513 59.1393Z" fill="#D7DEDF"/>
<path d="M28.6683 61.9062C29.8428 62.5983 31.05 63.3302 32.2373 63.9928C32.3494 64.0558 32.504 64.1373 32.6092 64.2053L30.7387 67.3904C30.0458 68.5528 29.3597 69.7189 28.6803 70.8892L28.6683 61.9062Z" fill="#B0BEC3"/>
<path d="M19.3898 66.3228C20.3651 66.1464 21.298 66.7965 21.47 67.7724C21.6419 68.7483 20.9873 69.6784 20.0104 69.8455C19.0402 70.0114 18.1182 69.3622 17.9475 68.393C17.7767 67.4234 18.4213 66.4983 19.3898 66.3228Z" fill="#455964"/>
<path d="M28.6724 45.2886L32.2296 47.3735L32.249 47.3941L37.2631 50.3365C37.9271 50.727 39.2959 51.4719 39.8436 51.8813C39.5793 52.3143 39.2783 52.7842 39.0458 53.2306C38.2156 54.7272 37.2671 56.2842 36.3949 57.7653L32.6092 64.2052C32.504 64.1372 32.3494 64.0557 32.2373 63.9927C31.05 63.3301 29.8428 62.5982 28.6683 61.9061L28.668 59.1263C28.6918 57.5961 28.6697 56.0155 28.6697 54.4794L28.6724 45.2886Z" fill="#FE9D00"/>
<path d="M28.6724 45.2886L32.2296 47.3735L32.249 47.3941L32.2562 57.8249L32.2559 61.6769C32.2559 62.4247 32.2737 63.2512 32.2373 63.9927C31.05 63.3301 29.8428 62.5982 28.6683 61.9061L28.668 59.1263C28.6918 57.5961 28.6697 56.0155 28.6697 54.4794L28.6724 45.2886Z" fill="#F77A00"/>
<path d="M28.6803 41.2051C28.9923 41.2992 29.4777 41.6162 29.7771 41.782C30.5866 42.2299 31.4217 42.8107 32.2401 43.2218L32.2524 43.2441L32.2503 45.8912C32.2507 46.2385 32.2695 47.0645 32.2296 47.3736L28.6724 45.2887L28.661 44.7999C22.7108 44.7323 16.7076 44.8549 10.7524 44.7898L10.7524 44.5748C10.751 43.6106 10.7097 42.18 10.7784 41.2538C11.0788 41.1471 14.9881 41.2032 15.603 41.2032L28.6803 41.2051Z" fill="#D7DEDF"/>
<path d="M28.6803 41.2051C28.9922 41.2991 29.4777 41.6162 29.7771 41.7819C30.5866 42.2299 31.4217 42.8107 32.2401 43.2218L32.2524 43.244L32.2503 45.8912C32.2507 46.2385 32.2695 47.0645 32.2296 47.3735L28.6724 45.2886L28.661 44.7998C22.7108 44.7322 16.7076 44.8548 10.7524 44.7897L10.7524 44.5747L10.7999 44.7066C10.8236 44.723 10.8473 44.7393 10.8709 44.7561C11.6737 44.7566 13.6807 44.7561 14.3583 44.7561L28.6731 44.7599C28.6642 43.5749 28.6666 42.3899 28.6803 41.2051Z" fill="#B0BEC3"/>
<path d="M59.3127 59.1217C59.775 59.1225 60.5469 59.1427 60.9672 59.0759C61.6458 59.1704 63.8076 59.1843 64.5009 59.1112C65.0022 59.0638 65.8328 59.1217 66.3842 59.1242L70.3168 59.1267L74.9817 59.1242C75.7573 59.1242 76.5606 59.1087 77.3332 59.1452C78.0454 59.1788 78.7937 59.9573 78.8214 60.6746C78.8559 61.5749 78.8424 62.5038 78.8416 63.4146L78.8424 68.7308L78.8475 73.4738C78.8475 74.1574 78.858 74.8919 78.8408 75.5763C78.8017 75.8904 78.6178 76.1823 78.4267 76.4229C78.1403 76.7836 77.6809 77.0268 77.2173 77.0385C76.2713 77.062 75.3172 77.0503 74.3703 77.0503H68.7593L65.7568 77.0498C65.5536 77.0498 64.61 77.0624 64.4689 77.0297C63.4384 77.0053 61.9414 76.9843 60.9294 77.0587C59.7822 77.0154 58.3477 77.0528 57.1783 77.0524L50.0056 77.0503L47.5818 77.057C47.2475 77.0578 46.4912 77.0776 46.1864 77.0205C45.9676 76.9911 45.284 77.01 45.0379 77.0133C44.3946 77.023 43.6773 76.9894 43.0441 77.0452C42.9673 76.677 42.9962 74.928 42.9962 74.4531L42.9992 68.8131L42.9987 64.6861C43.3011 64.4472 44.6831 63.6749 45.079 63.4448C45.5725 63.1479 46.068 62.8548 46.5651 62.5646L46.6021 62.5546C46.7613 62.408 47.9211 61.7571 48.1617 61.6278C49.5995 60.8035 51.0243 59.9158 52.4613 59.1066C54.6864 59.0927 57.0888 59.0931 59.3127 59.1217Z" fill="#5B6ABF"/>
<path d="M64.5008 59.1111C65.0022 59.0637 65.8328 59.1216 66.3842 59.1242L70.3168 59.1267L74.9817 59.1242C75.7573 59.1242 76.5606 59.1086 77.3332 59.1452C78.0454 59.1787 78.7937 59.9573 78.8214 60.6745C78.8559 61.5748 78.8424 62.5037 78.8416 63.4145L78.8424 68.7307L78.8475 73.4737C78.8475 74.1574 78.858 74.8918 78.8408 75.5763C78.8017 75.8904 78.6178 76.1822 78.4267 76.4228C78.1403 76.7836 77.6809 77.0267 77.2173 77.0384C76.2713 77.062 75.3172 77.0502 74.3703 77.0502H68.7593L65.7568 77.0498C65.5536 77.0498 64.61 77.0624 64.4689 77.0296C64.5336 76.9079 64.5008 60.5981 64.5008 59.1111Z" fill="#8B9DFE"/>
<path d="M60.9672 59.0759C61.6458 59.1704 63.8076 59.1843 64.5008 59.1112C64.5008 60.5981 64.5336 76.9079 64.4689 77.0297C63.4384 77.0053 61.9414 76.9843 60.9294 77.0587C60.8891 76.0895 60.9176 74.9091 60.9176 73.9239V68.2495L60.9164 62.219C60.9164 61.8772 60.882 59.2305 60.9672 59.0759Z" fill="#D7DEDF"/>
<path d="M45.079 63.4449C45.5725 63.148 46.068 62.8549 46.5651 62.5647C46.5782 63.9273 46.5471 65.3458 46.5769 66.6984L46.5845 74.2717C46.5845 74.7076 46.6407 76.6758 46.5601 76.9949C46.4274 77.0482 46.33 77.0285 46.1864 77.0205C45.9676 76.9911 45.284 77.01 45.0379 77.0134C44.3946 77.023 43.6773 76.9894 43.0441 77.0453C42.9673 76.677 42.9962 74.928 42.9962 74.4531L42.9992 68.8131L42.9987 64.6861C43.3011 64.4472 44.6831 63.675 45.079 63.4449Z" fill="#D7DEDF"/>
<path d="M45.079 63.4449C45.5725 63.148 46.068 62.8549 46.5651 62.5647C46.5782 63.9273 46.5471 65.3458 46.5769 66.6984C45.3906 67.4144 44.198 68.119 42.9992 68.8131L42.9987 64.6861C43.3011 64.4472 44.6831 63.675 45.079 63.4449Z" fill="#B0BEC3"/>
<path d="M52.4613 59.1065C54.6864 59.0927 57.0888 59.0931 59.3127 59.1217C59.0662 59.361 57.738 60.1198 57.3777 60.3327L53.2923 62.7426L48.8172 65.3814C48.2855 65.6951 47.1341 66.4249 46.6185 66.6609C46.6185 65.36 46.6563 63.8374 46.6021 62.5545C46.7612 62.408 47.9211 61.7571 48.1617 61.6278C49.5995 60.8034 51.0243 59.9157 52.4613 59.1065Z" fill="#303FA0"/>
<path d="M35.2478 24.1502C35.3274 24.0104 35.3456 23.9958 35.4281 23.8751C35.9245 23.1491 36.3468 22.3271 36.7951 21.5771L40.4477 15.391C40.8584 14.6958 41.2808 13.8525 41.7418 13.2137C41.9659 12.9032 42.5242 12.5585 42.9038 12.5291C43.2058 12.5058 43.6307 12.5281 43.9087 12.6769C44.804 13.1557 45.7236 13.7057 46.5937 14.2263L50.5871 16.5764L54.3312 18.7837C55.129 19.2462 56.0041 19.7318 56.7747 20.2468C57.1035 20.5103 57.3122 20.9971 57.3554 21.407C57.3903 21.7383 57.2828 22.1737 57.1211 22.4715C56.5311 23.5585 55.8782 24.6312 55.2445 25.6922L52.5893 30.227C52.2034 30.8855 51.8217 31.5464 51.4442 32.2097C51.2825 32.4916 50.9416 33.1558 50.714 33.3247L49.5869 35.273C49.4051 35.59 49.0746 36.1292 48.9541 36.4549C48.8361 36.7274 48.624 37.0507 48.4653 37.3092C47.5624 38.7775 46.7129 40.277 45.8257 41.7545C45.7047 41.9556 45.5871 42.1193 45.5057 42.3406C45.242 42.6291 44.7821 43.466 44.5625 43.8402L42.7002 47.0211C42.4654 47.425 41.9183 48.4169 41.6638 48.7503C41.487 49.051 41.2614 49.4117 41.1036 49.7165C40.8398 50.2192 40.1601 51.4193 39.8436 51.8812C39.2959 51.4718 37.9271 50.7269 37.2631 50.3363L32.249 47.394L32.2296 47.3734C32.2695 47.0643 32.2507 46.2383 32.2502 45.8911L32.2523 43.2439L32.2401 43.2216C31.4217 42.8105 30.5866 42.2298 29.7771 41.7818C29.4777 41.616 28.9922 41.299 28.6803 41.2049C28.6493 39.9969 28.6841 38.7215 28.6702 37.5078C28.6655 37.0931 28.6451 35.7535 28.6987 35.4111C29.3335 34.2741 29.9861 33.1471 30.6563 32.0306C31.1787 31.1409 31.6159 30.3518 32.1704 29.4682C32.5722 28.7381 32.9904 28.0172 33.4248 27.3059C33.7823 26.5983 35.0516 24.8481 35.2478 24.1502Z" fill="#FECE2D"/>
<path d="M35.2478 24.1502C35.3273 24.0104 35.3456 23.9958 35.4281 23.8751C35.9245 23.1491 36.3468 22.3271 36.7951 21.5771L40.4477 15.391C40.8584 14.6958 41.2808 13.8525 41.7418 13.2137C41.9659 12.9032 42.5242 12.5585 42.9038 12.5291C43.2058 12.5058 43.6307 12.5281 43.9087 12.6769C44.804 13.1557 45.7236 13.7057 46.5937 14.2263L50.5871 16.5764L54.3312 18.7837C55.129 19.2462 56.0041 19.7318 56.7747 20.2468C57.1035 20.5103 57.3122 20.9971 57.3554 21.407C57.3903 21.7383 57.2828 22.1737 57.1211 22.4715C56.5311 23.5585 55.8782 24.6312 55.2445 25.6922L52.5893 30.227C52.2034 30.8855 51.8217 31.5464 51.4442 32.2097C51.2825 32.4916 50.9416 33.1558 50.714 33.3247C50.2848 33.0156 49.5226 32.5947 49.0422 32.3113L46.1213 30.5971L38.8822 26.3497L36.6241 25.0366C36.2256 24.8021 35.5701 24.4459 35.2478 24.1502Z" fill="#FECE2D"/>
<path d="M35.2478 24.1504C35.5701 24.4461 36.2256 24.8023 36.6241 25.0368L38.8822 26.3499L46.1213 30.5973L49.0422 32.3115C49.5226 32.5949 50.2848 33.0158 50.714 33.3249L49.5869 35.2732C49.4051 35.5902 49.0746 36.1294 48.9541 36.4551C48.716 36.2411 47.3281 35.4631 46.9863 35.265L43.3263 33.1179L36.2042 28.9411C35.4817 28.5217 34.1123 27.6359 33.4248 27.3061C33.7823 26.5985 35.0516 24.8483 35.2478 24.1504Z" fill="#D7DEDF"/>
<path d="M32.2523 43.2439C34.8505 44.6464 37.4982 46.4076 40.0985 47.8408C40.6266 48.1318 41.1258 48.4799 41.6638 48.7503C41.487 49.051 41.2614 49.4117 41.1036 49.7166C40.8398 50.2192 40.1601 51.4194 39.8436 51.8813C39.2959 51.4718 37.9271 50.7269 37.2631 50.3364L32.249 47.394L32.2296 47.3734C32.2695 47.0643 32.2507 46.2384 32.2502 45.8911L32.2523 43.2439Z" fill="#D7DEDF"/>
<path d="M28.6987 35.4112C29.3335 34.2741 29.9861 33.1471 30.6563 32.0306C31.1787 31.1409 31.6159 30.3518 32.1704 29.4683C32.2896 30.5384 32.2591 31.5581 32.259 32.634L32.2593 36.7339V40.9302C32.2594 41.6077 32.2897 42.5741 32.2401 43.2216C31.4217 42.8105 30.5866 42.2298 29.7771 41.7818C29.4777 41.6161 28.9922 41.299 28.6803 41.205C28.6493 39.9969 28.6841 38.7215 28.6702 37.5078C28.6655 37.0931 28.6451 35.7535 28.6987 35.4112Z" fill="#FE9D00"/>
<path d="M54.4563 37.0838C54.6831 36.8815 55.5133 36.4124 55.808 36.2404L58.3759 34.7439C59.6734 33.9761 60.9769 33.1877 62.2853 32.4395C63.1697 31.9337 64.479 31.0555 65.3571 30.6471C65.6598 30.5033 65.9941 30.4386 66.3288 30.4593C66.7562 30.49 67.3189 30.7545 67.5507 31.0949C67.9555 31.6905 68.3553 32.4049 68.7236 33.0291L71.1251 37.1023L73.6673 41.3965C74.1486 42.2043 74.6562 43.0407 75.1009 43.8705C75.2387 44.1737 75.2702 44.5273 75.2349 44.854C75.1832 45.3281 74.9397 45.7522 74.5412 46.0197C73.8172 46.5055 73.0416 46.9359 72.2908 47.3802L67.5066 50.2004L64.7146 51.8713C64.5202 51.9872 63.7294 52.4739 63.59 52.5213C63.3141 52.6192 60.7304 54.1275 60.4931 54.3274C60.3562 54.4727 59.8632 54.7364 59.6625 54.8506C57.2425 56.2259 54.8729 57.7216 52.4613 59.1065C51.0243 59.9157 49.5995 60.8034 48.1617 61.6277C47.9211 61.7571 46.7612 62.408 46.6021 62.5545L46.5651 62.5646C46.068 62.8548 45.5724 63.1479 45.079 63.4448C44.8964 63.1584 44.712 62.8371 44.5428 62.5415C43.435 60.6086 42.2294 58.7097 41.1408 56.768C41.194 56.6235 41.6191 55.9046 41.7216 55.7341C42.2064 54.9292 42.688 54.0456 43.1974 53.2616L43.1797 53.2255C42.4864 52.1283 41.768 50.8458 41.1036 49.7167C41.2614 49.4118 41.487 49.0511 41.6639 48.7504C41.9183 48.417 42.4654 47.4252 42.7002 47.0212L44.5625 43.8403C44.7822 43.4661 45.242 42.6292 45.5057 42.3407C46.1818 41.8789 47.5629 41.12 48.2826 40.6969C49.143 40.191 50.6212 39.2475 51.4585 38.8545C52.2244 38.4304 53.7584 37.5584 54.4563 37.0838Z" fill="#42A045"/>
<path d="M54.4563 37.0838C54.6831 36.8815 55.5132 36.4124 55.808 36.2404L58.3759 34.7439C59.6734 33.9761 60.9768 33.1877 62.2853 32.4395C63.1697 31.9337 64.479 31.0555 65.3571 30.6471C65.6598 30.5033 65.9941 30.4386 66.3288 30.4593C66.7562 30.49 67.3189 30.7545 67.5507 31.0949C67.9555 31.6905 68.3553 32.4049 68.7236 33.0291L71.1251 37.1023L73.6673 41.3965C74.1485 42.2043 74.6562 43.0407 75.1009 43.8705C75.2387 44.1737 75.2702 44.5273 75.2349 44.854C75.1832 45.3281 74.9397 45.7522 74.5412 46.0197C73.8172 46.5055 73.0416 46.9359 72.2908 47.3802L67.5066 50.2004L64.7146 51.8713C64.5201 51.9872 63.7294 52.4739 63.59 52.5213C62.9379 51.5454 62.1325 50.0824 61.5223 49.0465L56.9061 41.2273C56.196 40.0215 55.2054 38.2145 54.4563 37.0838Z" fill="#7FC781"/>
<path d="M54.4563 37.0837C55.2055 38.2145 56.1961 40.0214 56.9061 41.2272L61.5223 49.0464C62.1325 50.0823 62.9379 51.5453 63.59 52.5212C63.3141 52.6191 60.7304 54.1274 60.4931 54.3273C60.2512 53.9746 59.9233 53.3754 59.6953 52.9903L58.0857 50.2604L53.4065 42.3419L52.1467 40.1972C51.9469 39.8563 51.6832 39.3709 51.4665 39.0579L51.4585 38.8544C52.2244 38.4303 53.7584 37.5583 54.4563 37.0837Z" fill="#D7DEDF"/>
<path d="M45.5057 42.3408C46.1818 41.8789 47.5629 41.1201 48.2826 40.6969C49.143 40.1911 50.6212 39.2475 51.4585 38.8545L51.4665 39.058C51.2951 39.5085 50.3289 41.0907 50.0421 41.5752L47.3932 46.081L44.5579 50.9223C44.2018 51.5274 43.5476 52.7275 43.1797 53.2256C42.4864 52.1283 41.768 50.8459 41.1036 49.7167C41.2614 49.4118 41.487 49.0511 41.6639 48.7505C41.9183 48.417 42.4654 47.4252 42.7002 47.0212L44.5625 43.8403C44.7822 43.4662 45.242 42.6293 45.5057 42.3408Z" fill="#338536"/>
<path d="M43.1974 53.2617C44.8964 55.9463 46.4572 58.9584 48.1617 61.6278C47.9211 61.7572 46.7612 62.408 46.6021 62.5546L46.5651 62.5647C46.068 62.8548 45.5724 63.1479 45.079 63.4448C44.8964 63.1584 44.712 62.8372 44.5428 62.5416C43.435 60.6087 42.2294 58.7098 41.1408 56.7681C41.194 56.6236 41.6191 55.9047 41.7216 55.7342C42.2063 54.9292 42.688 54.0457 43.1974 53.2617Z" fill="#D7DEDF"/>
<path d="M10.7497 23.3045C10.6999 22.6582 10.7424 21.5727 10.7429 20.8919L10.7433 16.1139L10.7411 12.3982C10.7407 11.7464 10.7099 11.0194 10.776 10.3801C10.849 9.67358 11.6008 9.0012 12.3077 8.97697C13.3067 8.94275 14.2986 8.95388 15.2947 8.95371L20.8666 8.95342L25.0244 8.95405C25.7433 8.95413 26.4959 8.93112 27.2101 8.98243C27.9389 9.03476 28.6543 9.9126 28.6728 10.6265C28.6924 11.3828 28.6849 12.1441 28.6845 12.9002L28.6834 17.1311L28.6852 21.1678C28.6854 21.7991 28.7132 22.7418 28.674 23.3502C28.6643 24.4567 28.689 25.5863 28.6632 26.6873C28.6936 27.1476 28.6959 27.6069 28.6934 28.0679C28.6815 30.2836 28.7184 32.4994 28.679 34.7148C28.6753 34.9238 28.6619 35.2096 28.6987 35.4114C28.6451 35.7537 28.6655 37.0933 28.6702 37.508C28.6841 38.7217 28.6493 39.9971 28.6803 41.2051L15.603 41.2033C14.9881 41.2032 11.0788 41.1471 10.7784 41.2538C10.6213 40.941 10.7261 28.1928 10.7136 26.8804C10.7976 25.9434 10.751 24.2981 10.7497 23.3045Z" fill="#FF6F69"/>
<path d="M10.7497 23.3045C10.6999 22.6582 10.7424 21.5727 10.7429 20.8919L10.7433 16.1139L10.7411 12.3982C10.7407 11.7464 10.7099 11.0194 10.7759 10.3801C10.849 9.67358 11.6008 9.0012 12.3077 8.97697C13.3066 8.94275 14.2986 8.95388 15.2947 8.95371L20.8666 8.95342L25.0244 8.95405C25.7433 8.95413 26.4959 8.93112 27.2101 8.98243C27.9389 9.03476 28.6543 9.9126 28.6728 10.6265C28.6924 11.3828 28.6849 12.1441 28.6845 12.9002L28.6834 17.1311L28.6852 21.1678C28.6854 21.7991 28.7132 22.7418 28.674 23.3502C28.4696 23.2359 12.2161 23.2828 10.7497 23.3045Z" fill="#FF6F69"/>
<path d="M10.7498 23.3046C12.2161 23.2828 28.4696 23.2359 28.674 23.3502C28.6643 24.4567 28.689 25.5863 28.6632 26.6874L28.6398 26.8499C28.3472 26.987 12.4648 26.7966 10.7136 26.8804C10.7976 25.9434 10.751 24.2981 10.7498 23.3046Z" fill="#D7DEDF"/>
<path d="M32.6092 64.2051L36.3949 57.7652C37.2671 56.2841 38.2156 54.7271 39.0458 53.2305L40.4432 55.5888C40.5823 55.8239 41.0225 56.5424 41.1151 56.762L41.1408 56.7679C42.2294 58.7096 43.435 60.6085 44.5428 62.5414C44.712 62.837 44.8964 63.1583 45.079 63.4446C44.6831 63.6748 43.3011 64.447 42.9987 64.6859L42.9992 68.8129L42.9962 74.4529C42.9962 74.9278 42.9673 76.6768 43.0441 77.0451C42.009 77.077 40.8734 77.0543 39.8324 77.0543L33.9757 77.0526L30.5316 77.0573C30.0321 77.0581 29.1294 77.0837 28.6567 77.0346C28.7093 75.8176 28.6736 74.371 28.6732 73.1369C28.6675 72.3877 28.6699 71.6382 28.6803 70.889C29.3597 69.7187 30.0458 68.5526 30.7387 67.3902L32.6092 64.2051Z" fill="#303FA0"/>
<path d="M32.6092 64.2051L36.3949 57.7652C37.2671 56.2841 38.2156 54.7271 39.0458 53.2305L40.4432 55.5888C40.5823 55.8239 41.0225 56.5424 41.1151 56.762L41.1408 56.7679C42.2294 58.7096 43.435 60.6085 44.5428 62.5414C44.712 62.837 44.8964 63.1583 45.079 63.4446C44.683 63.6748 43.3011 64.447 42.9987 64.6859L36.2226 68.6895L34.1839 69.8913C33.856 70.0853 33.3072 70.4309 32.9796 70.5821L32.7391 70.7437C32.0515 69.6473 31.4287 68.4808 30.7387 67.3902L32.6092 64.2051Z" fill="#1B5E1E"/>
<path d="M41.1151 56.7622L41.1408 56.7681C42.2294 58.7098 43.435 60.6087 44.5428 62.5416C44.712 62.8372 44.8964 63.1585 45.079 63.4448C44.6831 63.675 43.3011 64.4472 42.9987 64.6861L36.2226 68.6897L34.1839 69.8915C33.856 70.0855 33.3072 70.4311 32.9797 70.5823C33.336 70.0977 33.8298 69.1827 34.1607 68.6229L36.5325 64.5757L39.5129 59.5089C40.0097 58.6666 40.6705 57.6146 41.1151 56.7622Z" fill="#338536"/>
<path d="M30.7387 67.3904C31.4287 68.4809 32.0515 69.6475 32.7391 70.7439L28.6732 73.137C28.6675 72.3879 28.6699 71.6383 28.6803 70.8892C29.3597 69.7189 30.0458 68.5527 30.7387 67.3904Z" fill="#90A3AB"/>
<path d="M41.1036 49.7166C41.768 50.8457 42.4865 52.1282 43.1797 53.2254L43.1974 53.2615C42.688 54.0455 42.2064 54.929 41.7216 55.734C41.6191 55.9045 41.1941 56.6234 41.1409 56.7679L41.1151 56.762C41.0225 56.5424 40.5823 55.8239 40.4432 55.5887L39.0458 53.2305C39.2783 52.7841 39.5793 52.3142 39.8436 51.8813C40.1601 51.4193 40.8399 50.2192 41.1036 49.7166Z" fill="#B0BEC3"/>
</svg>
